<svg id="A-B" enable-background="new 0 0 300 300" height="512" viewBox="0 0 300 300" width="512" xmlns="http://www.w3.org/2000/svg" xmlns:xlink="http://www.w3.org/1999/xlink"><linearGradient id="SVGID_1_" gradientUnits="userSpaceOnUse" x1="72.613" x2="247.231" y1="234.27" y2="59.652"><stop offset="0" stop-color="#107eff"/><stop offset="1" stop-color="#8f16ff"/></linearGradient><g><path d="m234 70c0-8.822-7.176-16-16-16s-16 7.178-16 16 7.176 16 16 16 16-7.178 16-16zm-16 44c7.008 0 28-22.873 28-44 0-15.439-12.562-28-28-28s-28 12.561-28 28c0 21.127 20.992 44 28 44zm0-64c11.027 0 20 8.973 20 20 0 16.43-15.152 33.061-20 35.789-4.848-2.729-20-19.359-20-35.789 0-11.027 8.973-20 20-20zm-148 28c6.617 0 12-5.383 12-12s-5.383-12-12-12-12 5.383-12 12 5.383 12 12 12zm0-16c2.207 0 4 1.795 4 4s-1.793 4-4 4-4-1.795-4-4 1.793-4 4-4zm28 76c-11.027 0-20 8.973-20 20s8.973 20 20 20 20-8.973 20-20-8.973-20-20-20zm0 32c-6.617 0-12-5.383-12-12s5.383-12 12-12 12 5.383 12 12-5.383 12-12 12zm0-64c-28.672 0-52 23.326-52 52 0 41.297 41.012 84 52 84s52-42.703 52-84c0-28.674-23.328-52-52-52zm.156 128.01c-6.636-1.164-44.156-38.615-44.156-76.01 0-24.262 19.738-44 44-44s44 19.738 44 44c0 37.395-37.52 74.846-43.844 76.01zm-.156-108.01c-17.645 0-32 14.355-32 32s14.355 32 32 32 32-14.355 32-32-14.355-32-32-32zm0 56c-13.234 0-24-10.766-24-24s10.766-24 24-24 24 10.766 24 24-10.766 24-24 24zm23.516-101.172 2.828-2.828-2.828-2.828c-1.562-1.562-1.562-4.094 0-5.656s4.094-1.562 5.656 0l2.828 2.828 2.828-2.828c1.562-1.562 4.094-1.562 5.656 0s1.562 4.094 0 5.656l-2.828 2.828 2.828 2.828c1.562 1.562 1.562 4.094 0 5.656-.781.781-1.805 1.172-2.828 1.172s-2.047-.391-2.828-1.172l-2.828-2.828-2.828 2.828c-.781.781-1.805 1.172-2.828 1.172s-2.047-.391-2.828-1.172c-1.563-1.562-1.563-4.093 0-5.656zm41.955-20.828c0-2.502 2.028-4.53 4.529-4.53s4.529 2.028 4.529 4.53c0 2.501-2.028 4.529-4.529 4.529s-4.529-2.028-4.529-4.529zm81.845 142.398c1.574 1.551 1.59 4.082.039 5.656-.781.793-1.816 1.191-2.848 1.191-1.016 0-2.027-.383-2.809-1.152-3.25-3.205-7.348-5.238-11.844-5.879-2.184-.312-3.707-2.338-3.395-4.525.312-2.186 2.34-3.67 4.527-3.396 6.202.885 11.85 3.687 16.33 8.105zm-63.265-52.982c.371-6.266 2.695-12.125 6.723-16.945 1.418-1.693 3.938-1.924 5.637-.504 1.695 1.416 1.918 3.938.504 5.633-2.922 3.496-4.609 7.746-4.879 12.289-.125 2.125-1.887 3.764-3.988 3.764-.078 0-.16-.002-.238-.008-2.208-.129-3.892-2.024-3.759-4.229zm61.746 96.439c1.391 1.715 1.133 4.234-.582 5.627-4.875 3.959-10.766 6.201-17.039 6.486-.059.002-.121.004-.184.004-2.125 0-3.895-1.674-3.992-3.818-.102-2.207 1.609-4.078 3.816-4.178 4.547-.205 8.816-1.832 12.352-4.705 1.723-1.392 4.234-1.126 5.629.584zm-21.797-119.855c0 2.209-1.789 4-4 4h-6.84c-1.699.002-3.391.203-5.023.6-.32.078-.637.113-.949.113-1.801 0-3.438-1.227-3.883-3.057-.523-2.146.797-4.309 2.941-4.83 2.25-.547 4.574-.824 6.91-.826h6.844c2.211 0 4 1.791 4 4zm-5.566 72c0 2.209-1.789 4-4 4h-1.273c-5.762 0-11.332-1.678-16.109-4.852-1.84-1.223-2.34-3.705-1.117-5.545 1.223-1.842 3.699-2.338 5.547-1.119 3.461 2.301 7.5 3.516 11.68 3.516h1.273c2.21 0 3.999 1.791 3.999 4zm37.566 25.16v5.68c-.004 2.479-.316 4.936-.926 7.305-.465 1.805-2.09 3.002-3.871 3.002-.332 0-.668-.041-1.004-.127-2.137-.551-3.426-2.732-2.875-4.871.445-1.723.672-3.512.676-5.316v-5.672c0-1.102-.086-2.215-.258-3.312-.34-2.184 1.156-4.229 3.34-4.568 2.184-.328 4.227 1.158 4.566 3.338.235 1.502.352 3.029.352 4.541zm-40 30.84c0 2.209-1.789 4-4 4h-16c-2.211 0-4-1.791-4-4s1.789-4 4-4h16c2.211 0 4 1.791 4 4zm-96 0c0 2.209-1.789 4-4 4h-16c-2.211 0-4-1.791-4-4s1.789-4 4-4h16c2.211 0 4 1.791 4 4zm70.895-68.771c-.453.166-.918.246-1.375.246-1.633 0-3.164-1.006-3.758-2.629-1.168-3.197-1.762-6.564-1.762-10.006v-7.188c0-2.209 1.789-4 4-4s4 1.791 4 4v7.188c0 2.502.43 4.943 1.277 7.26.758 2.074-.308 4.371-2.382 5.129zm-38.895 68.771c0 2.209-1.789 4-4 4h-16c-2.211 0-4-1.791-4-4s1.789-4 4-4h16c2.211 0 4 1.791 4 4zm32 0c0 2.209-1.789 4-4 4h-16c-2.211 0-4-1.791-4-4s1.789-4 4-4h16c2.211 0 4 1.791 4 4z" fill="url(#SVGID_1_)"/></g></svg>